<svg xmlns="http://www.w3.org/2000/svg" width="96" height="96" viewBox="0 0 96 96"><path fill="#fff" d="M96 55.919v-15.838c-3.104-.646-6.545-1.228-10.255-1.739-.927-3.629-2.353-7.049-4.217-10.189 2.281-3.012 4.307-5.865 6.013-8.494l-11.199-11.2c-2.629 1.706-5.482 3.731-8.493 6.013-3.138-1.861-6.552-3.286-10.175-4.213-.517-3.742-1.103-7.194-1.755-10.259h-15.838c-.652 3.065-1.238 6.517-1.755 10.259-3.623.927-7.037 2.352-10.175 4.213-3.01-2.281-5.864-4.307-8.493-6.013l-11.199 11.199c1.706 2.629 3.731 5.482 6.013 8.494-1.861 3.137-3.286 6.551-4.213 10.174-3.742.517-7.194 1.103-10.259 1.755v15.838c3.065.653 6.517 1.238 10.259 1.755.927 3.623 2.352 7.037 4.213 10.175-2.281 3.011-4.307 5.864-6.013 8.493l11.199 11.199c2.629-1.706 5.483-3.731 8.493-6.013 3.138 1.861 6.552 3.286 10.175 4.213.517 3.742 1.103 7.193 1.755 10.259h15.838c.652-3.065 1.238-6.517 1.755-10.259 3.628-.928 7.047-2.355 10.188-4.221 2.985 2.261 5.829 4.282 8.48 6.021l11.199-11.199c-1.738-2.651-3.76-5.495-6.021-8.48 1.867-3.145 3.297-6.568 4.225-10.203 3.71-.513 7.151-1.094 10.255-1.74zm-48 16.081c-13.255 0-24-10.745-24-24s10.745-24 24-24 24 10.745 24 24-10.745 24-24 24z"/></svg>